<?xml version="1.0" encoding="UTF-8"?>
<svg id="Layer_1" data-name="Layer 1" xmlns="http://www.w3.org/2000/svg" viewBox="0 0 2038.55 372.77">
  <defs>
    <style>
      .cls-1 {
        fill: #fff;
        stroke-width: 0px;
      }
    </style>
  </defs>
  <g>
    <path class="cls-1" d="M545.26,81.42v170.03h-32.31l-84.77-103.23v103.23h-38.86V81.42h32.55l84.53,103.23v-103.23h38.86Z"/>
    <path class="cls-1" d="M721.84,215.01h-78.94l-15.06,36.44h-40.32l75.79-170.03h38.86l76.03,170.03h-41.29l-15.06-36.44ZM709.45,185.13l-26.96-65.1-26.96,65.1h53.92Z"/>
    <path class="cls-1" d="M928.54,251.45l-32.79-47.37h-36.19v47.37h-39.35V81.42h73.6c45.42,0,73.84,23.56,73.84,61.7,0,25.5-12.87,44.21-34.98,53.68l38.14,54.65h-42.27ZM891.62,113.48h-32.06v59.27h32.06c24.05,0,36.19-11.17,36.19-29.63s-12.15-29.63-36.19-29.63Z"/>
    <path class="cls-1" d="M1131.35,251.45l-32.79-47.37h-36.19v47.37h-39.35V81.42h73.6c45.42,0,73.84,23.56,73.84,61.7,0,25.5-12.87,44.21-34.98,53.68l38.14,54.65h-42.27ZM1094.43,113.48h-32.06v59.27h32.06c24.05,0,36.19-11.17,36.19-29.63s-12.15-29.63-36.19-29.63Z"/>
    <path class="cls-1" d="M1337.81,215.01h-78.94l-15.06,36.44h-40.32l75.79-170.03h38.86l76.03,170.03h-41.29l-15.06-36.44ZM1325.42,185.13l-26.96-65.1-26.96,65.1h53.92Z"/>
    <path class="cls-1" d="M1462.9,113.48h-54.41v-32.06h148.17v32.06h-54.41v137.97h-39.35V113.48Z"/>
    <path class="cls-1" d="M1602.07,81.42h39.35v170.03h-39.35V81.42Z"/>
    <path class="cls-1" d="M1868.53,81.42l-73.6,170.03h-38.86l-73.36-170.03h42.51l51.74,121.45,52.47-121.45h39.11Z"/>
    <path class="cls-1" d="M2038.55,219.87v31.58h-131.65V81.42h128.49v31.58h-89.39v36.92h78.94v30.61h-78.94v39.35h92.55Z"/>
  </g>
  <g>
    <path class="cls-1" d="M140.62,82.14l45.79,92.1L212.19,10.2C194.9,3.63,176.17,0,156.57,0,70.1,0,0,70.1,0,156.57c0,44.54,18.61,84.73,48.46,113.23l42.05-187.67h50.11Z"/>
    <path class="cls-1" d="M262.56,41.35l-38.39,207.13h0s-.04,0-.04,0c-.87,0-56.43.3-56.47,0h0l-41.85-90.23-42.85,214.52,83.47-59.94c81.88-5.09,146.71-73.1,146.71-156.26,0-45.59-19.5-86.61-50.59-115.22Z"/>
  </g>
</svg>